# xmcd
#
# Track frame offsets:
#	150
#	33552
#	71974
#	102855
#	135457
#	167417
#
# Disc length: 2874 seconds
#
# Revision: 1
# Processed by: cddbd v1.5PL3 Copyright (c) Steve Scherf et al.
# Submitted via: CDex 1.50Beta5
#
DISCID=4c0b3806
DTITLE=Nutopia Productions - Nutopia
DYEAR=2002
DGENRE=Other
TTITLE0=Float
TTITLE1=Clalis
TTITLE2=Ripple
TTITLE3=Isle
TTITLE4=Step
TTITLE5=Sincere
EXTD=
EXTT0=
EXTT1=
EXTT2=
EXTT3=
EXTT4=
EXTT5=
PLAYORDER=
